<?xml version="1.0" encoding="UTF-8"?>
<svg id="_Слой_2" data-name="Слой 2" xmlns="http://www.w3.org/2000/svg" xmlns:xlink="http://www.w3.org/1999/xlink" viewBox="0 0 234.62 207.45">
  <defs>
    <style>
      .cls-1 {
        fill: url(#linear-gradient-2);
      }

      .cls-2 {
        fill: #c0afae;
      }

      .cls-3 {
        fill: url(#Degradado_sin_nombre_35);
      }

      .cls-4 {
        fill: #efebe9;
      }

      .cls-5 {
        fill: #9e9d98;
      }

      .cls-6 {
        fill: #37474f;
      }

      .cls-7 {
        fill: #ff7a58;
      }

      .cls-8 {
        fill: #4d4d4f;
      }

      .cls-9 {
        fill: url(#Degradado_sin_nombre_35-3);
      }

      .cls-10 {
        fill: url(#Degradado_sin_nombre_35-4);
      }

      .cls-11 {
        fill: #cccbc4;
      }

      .cls-12 {
        fill: url(#Degradado_sin_nombre_35-2);
      }

      .cls-13 {
        fill: #d3c0be;
      }

      .cls-14 {
        fill: #d81b60;
      }

      .cls-15 {
        fill: url(#Degradado_sin_nombre_11);
      }

      .cls-16 {
        fill: #005077;
        opacity: .1;
      }

      .cls-17 {
        fill: url(#Degradado_sin_nombre_32-3);
      }

      .cls-18 {
        fill: url(#Degradado_sin_nombre_32-2);
      }

      .cls-19 {
        fill: url(#Degradado_sin_nombre_38);
      }

      .cls-20 {
        fill: #002856;
      }

      .cls-21 {
        fill: url(#Degradado_sin_nombre_38-2);
      }

      .cls-22 {
        fill: url(#Degradado_sin_nombre_32);
      }

      .cls-23 {
        fill: #00425a;
      }

      .cls-24 {
        fill: #c5c4bb;
      }

      .cls-25 {
        fill: #62afbd;
      }

      .cls-26 {
        fill: #fafafa;
        font-family: Quicksand-Italic, 'Quicksand Italic';
        font-size: 5.5px;
        font-style: italic;
      }

      .cls-27 {
        fill: #008da7;
      }

      .cls-28 {
        fill: url(#linear-gradient-3);
      }

      .cls-29 {
        fill: #fff;
        opacity: .6;
      }

      .cls-30 {
        fill: url(#linear-gradient);
      }

      .cls-31 {
        fill: url(#linear-gradient-4);
      }

      .cls-32 {
        fill: #b0bec5;
      }

      .cls-33 {
        fill: url(#Degradado_sin_nombre_37);
      }

      .cls-34 {
        fill: #d6d5ca;
      }
    </style>
    <linearGradient id="Degradado_sin_nombre_37" data-name="Degradado sin nombre 37" x1="145.9" y1="27.21" x2="145.9" y2="34.91" gradientUnits="userSpaceOnUse">
      <stop offset="0" stop-color="#9e9d98"/>
      <stop offset="1" stop-color="#cccbc4" stop-opacity=".97"/>
    </linearGradient>
    <linearGradient id="Degradado_sin_nombre_35" data-name="Degradado sin nombre 35" x1="130.06" y1="80.37" x2="126.83" y2="85.97" gradientUnits="userSpaceOnUse">
      <stop offset="0" stop-color="#008da7"/>
      <stop offset="1" stop-color="#62afbd"/>
    </linearGradient>
    <linearGradient id="Degradado_sin_nombre_35-2" data-name="Degradado sin nombre 35" x1="127.89" y1="87.25" x2="124.62" y2="92.92" xlink:href="#Degradado_sin_nombre_35"/>
    <linearGradient id="Degradado_sin_nombre_35-3" data-name="Degradado sin nombre 35" x1="132" y1="74.13" x2="129.13" y2="79.09" xlink:href="#Degradado_sin_nombre_35"/>
    <linearGradient id="Degradado_sin_nombre_35-4" data-name="Degradado sin nombre 35" x1="135.47" y1="65.15" x2="131.38" y2="72.23" xlink:href="#Degradado_sin_nombre_35"/>
    <linearGradient id="Degradado_sin_nombre_32" data-name="Degradado sin nombre 32" x1="67.61" y1="105.11" x2="67.61" y2="17.75" gradientUnits="userSpaceOnUse">
      <stop offset="0" stop-color="#008da7"/>
      <stop offset="1" stop-color="#002856"/>
    </linearGradient>
    <linearGradient id="linear-gradient" x1="79.38" y1="82.41" x2="99.64" y2="82.41" gradientUnits="userSpaceOnUse">
      <stop offset="0" stop-color="#fddedc"/>
      <stop offset="1" stop-color="#fdbcb8"/>
    </linearGradient>
    <linearGradient id="linear-gradient-2" x1="96.34" y1="84.94" x2="108.54" y2="84.94" xlink:href="#linear-gradient"/>
    <linearGradient id="Degradado_sin_nombre_38" data-name="Degradado sin nombre 38" x1="80.06" y1="167.71" x2="55.48" y2="129.58" gradientUnits="userSpaceOnUse">
      <stop offset="0" stop-color="#d81b60"/>
      <stop offset="1" stop-color="#002856"/>
    </linearGradient>
    <linearGradient id="Degradado_sin_nombre_38-2" data-name="Degradado sin nombre 38" x1="52.94" y1="177.47" x2="46.42" y2="84.66" xlink:href="#Degradado_sin_nombre_38"/>
    <linearGradient id="Degradado_sin_nombre_32-2" data-name="Degradado sin nombre 32" x1="53.79" y1="126.18" x2="53.79" y2="38.89" xlink:href="#Degradado_sin_nombre_32"/>
    <linearGradient id="Degradado_sin_nombre_11" data-name="Degradado sin nombre 11" x1="54.34" y1="32.08" x2="76.67" y2="32.08" gradientUnits="userSpaceOnUse">
      <stop offset="0" stop-color="#fae8dc"/>
      <stop offset="1" stop-color="#fab9ab" stop-opacity=".97"/>
    </linearGradient>
    <linearGradient id="Degradado_sin_nombre_32-3" data-name="Degradado sin nombre 32" x1="56.41" y1="89.55" x2="54.92" y2="38.91" xlink:href="#Degradado_sin_nombre_32"/>
    <linearGradient id="linear-gradient-3" x1="67.54" y1="84.4" x2="87.8" y2="84.4" xlink:href="#linear-gradient"/>
    <linearGradient id="linear-gradient-4" x1="83.68" y1="82.13" x2="96.86" y2="82.13" xlink:href="#linear-gradient"/>
  </defs>
  <g id="OBJECTS">
    <g>
      <g>
        <path class="cls-4" d="m55.15,44.11h-25.68v-23.11h25.68v23.11Zm-21.12-4.57h16.55v-13.98h-16.55v13.98Z"/>
        <path class="cls-4" d="m71.63,57.07h-13.13v-11.88h13.13v11.88Zm-10.27-2.85h7.42v-6.17h-7.42v6.17Z"/>
        <path class="cls-4" d="m68.57,17.46h-19.4V0h19.4v17.46Zm-15.98-3.42h12.56V3.42h-12.56v10.61Z"/>
        <path class="cls-4" d="m89.26,40.97h-28.52v-18.83h28.52v18.83Zm-26.24-2.28h23.96v-14.26h-23.96v14.26Z"/>
        <rect class="cls-4" x="94.88" y="35.04" width="76.19" height="3.2"/>
        <rect class="cls-4" y="73.28" width="63.51" height="3.2"/>
        <rect class="cls-11" x="103.23" y="8.28" width="5.11" height="26.76"/>
        <rect class="cls-11" x="110.1" y="13.84" width="5.11" height="21.2"/>
        <rect class="cls-11" x="117.08" y="13.84" width="2.62" height="21.2"/>
        <g>
          <path class="cls-4" d="m139.95,25.26h11.9c2.35,0,4.25,1.9,4.25,4.25v5.53h-20.4v-5.53c0-2.35,1.9-4.25,4.25-4.25Z"/>
          <path class="cls-33" d="m142.03,26.68h7.74c2.35,0,4.25,1.9,4.25,4.25v3.54h-16.24v-3.54c0-2.35,1.9-4.25,4.25-4.25Z"/>
          <text class="cls-26" transform="translate(138.89 32.67)"><tspan x="0" y="0">14.30</tspan></text>
        </g>
        <g>
          <rect class="cls-11" x="6.71" y="40.52" width="6.26" height="32.76"/>
          <rect class="cls-4" x="8.2" y="43.3" width="3.29" height="20.85"/>
          <circle class="cls-4" cx="9.84" cy="69.58" r="1.64"/>
        </g>
        <g>
          <rect class="cls-11" x="16.42" y="40.52" width="6.26" height="32.76"/>
          <rect class="cls-4" x="17.9" y="43.3" width="3.29" height="20.85"/>
          <path class="cls-4" d="m21.19,69.58c0,.91-.74,1.64-1.64,1.64s-1.64-.74-1.64-1.64.74-1.64,1.64-1.64,1.64.74,1.64,1.64Z"/>
        </g>
        <path class="cls-4" d="m38.04,59.1h-10.37c-.83,0-1.73.69-1.73,1.53v11.13c0,.84.89,1.89,1.73,1.89h10.37c.84,0,1.45-1.06,1.45-1.89v-11.13c0-.83-.61-1.53-1.45-1.53Zm-3,3.51h-4.38c-.54,0-.97-.22-.97-.75s.43-.75.97-.75h4.38c.54,0,.98.22.98.75s-.44.75-.98.75Z"/>
        <path class="cls-4" d="m55.58,59.1h-10.37c-.83,0-1.71.69-1.71,1.53v11.13c0,.84.87,1.89,1.71,1.89h10.37c.84,0,1.47-1.06,1.47-1.89v-11.13c0-.83-.63-1.53-1.47-1.53Zm-3,3.51h-4.38c-.54,0-.97-.22-.97-.75s.43-.75.97-.75h4.38c.54,0,.98.22.98.75s-.44.75-.98.75Z"/>
      </g>
      <g>
        <path class="cls-16" d="m175.47,196.42c.17-.06.34-.1.51-.15.33-.49.88-.82,1.67-.78,7.19-.33,14.42-.85,21.61-.33,1.63-.12,2.4,1.15,2.32,2.42.08,1.27-.69,2.54-2.32,2.42-7.19.52-14.42,0-21.61-.33-.78.04-1.34-.29-1.66-.78-.17-.04-.35-.09-.51-.15-1.14-.4-1.14-1.92,0-2.32Z"/>
        <g>
          <g>
            <path class="cls-23" d="m192.47,145.03c1.75-3.13,4.38-5.45,7.02-7.82,2.94-2.64,5.49-5.44,6.46-9.38,1.07-4.33.47-8.91-.11-13.27-.09-.7,1-.69,1.09,0,.5,3.74.97,7.55.48,11.32-.45,3.49-1.82,6.6-4.18,9.22-2.4,2.68-5.41,4.75-7.75,7.49-2.31,2.7-3.77,6.06-4.37,9.55-.69,3.99-.18,8.17,1.53,11.85.29.63-.65,1.19-.95.55-2.86-6.17-2.56-13.56.76-19.5Z"/>
            <path class="cls-23" d="m183.86,146.84c.28-2.63,1.12-5.12,2.61-7.31,1.45-2.13,3.34-3.98,4.49-6.31,2.96-6.02-1.89-12.09-4.07-17.48-1.08-2.67-1.76-5.61-1.04-8.47.61-2.41,2.18-4.39,3.77-6.24,2.03-2.36,4.02-4.63,4.87-7.7.86-3.12.6-6.47-.75-9.41-.29-.64.65-1.19.95-.55,2.18,4.75,1.76,10.4-1.24,14.71-1.49,2.14-3.43,3.93-4.91,6.08-1.82,2.65-2.27,5.54-1.48,8.65,1.49,5.8,6.27,10.78,5.9,17.05-.33,5.63-5.73,8.78-7.35,13.91-2.18,6.89.7,13.95,3.32,20.27.27.65-.79.93-1.06.29-2.29-5.53-4.67-11.38-4.01-17.49Z"/>
            <path class="cls-23" d="m182.18,133.45c1.7-2.29,3.77-4.13,6.07-5.8,2.48-1.79,5.16-3.54,6.61-6.34,1.56-3.03.8-6.08-1.75-8.25-2.46-2.09-5.68-2.92-8.34-4.7-2.2-1.47-4.31-3.84-4.18-6.66.11-2.39,1.83-4.62,4.3-4.78.7-.05.7,1.05,0,1.09-3.05.2-3.77,3.96-2.59,6.22,1.36,2.58,4.11,3.91,6.62,5.11,2.36,1.13,4.78,2.32,6.41,4.45,1.48,1.94,1.88,4.35,1.09,6.67-1.84,5.38-7.66,7.48-11.36,11.29-3.82,3.93-6.21,9.27-6.51,14.75-.3,5.57,1.51,11.12,4.93,15.49.16-3.83,1.53-7.54,3.88-10.58,2.91-3.77,6.99-5.72,11.42-7.19,4.53-1.5,9.84-2.84,12.77-6.94,1.37-1.91,2.16-4.35,1.6-6.69-.59-2.47-2.61-4.31-4.56-5.78-3.7-2.78-8.91-6.05-7.7-11.49.15-.69,1.21-.4,1.06.29-1.21,5.43,5.03,8.38,8.42,11.22,1.56,1.3,2.96,2.88,3.65,4.83.71,2.01.45,4.21-.37,6.14-3.94,9.21-16.28,7.94-23.03,13.75-3.84,3.31-6.09,8.25-6.06,13.32,0,.13-.04.23-.09.31.16.18.33.36.5.54.49.51-.29,1.29-.77.77-8.03-8.43-8.96-21.66-1.99-31.04Z"/>
          </g>
          <g>
            <path class="cls-27" d="m201.28,110.37c4.41,5.39,5.09,10.04,2.86,12.1l-16.15-19.75c1.7.47,9.3,2.77,13.29,7.65Z"/>
            <path class="cls-25" d="m187.64,102.63s.12.03.35.09l16.15,19.75c-.05.05-.1.09-.16.14-2.42,1.98-6.94.44-11.46-5.07-4.51-5.52-4.88-14.91-4.88-14.91Z"/>
            <path class="cls-23" d="m200.37,118.12c-1.08-1.33-2.17-2.66-3.25-3.99-2.17-2.66-4.31-5.35-6.44-8.04-.02-.03.04-.08.06-.05,1.5,1.77,2.99,3.55,4.47,5.33.21-1.14.5-2.36.97-3.49.02-.06.13-.07.12,0-.14,1.16-.55,2.45-.97,3.64.67.81,1.34,1.61,2.01,2.43,1.09,1.33,2.18,2.66,3.27,3.98,1.09,1.32,2.31,2.57,3.24,4.01.07.1-.12.25-.2.17-1.22-1.2-2.21-2.64-3.28-3.97Z"/>
            <path class="cls-23" d="m199.1,116.38c.36-1.92.89-3.92,1.59-5.85.02-.05.09-.05.08,0-.33,1.92-.88,3.91-1.56,5.85-.02.07-.12.07-.1,0Z"/>
            <path class="cls-23" d="m192.49,114.19c.82-.1,1.63-.16,2.44-.23.73-.07,1.48-.16,2.16-.08.05,0,.03.1-.03.11-.75.17-1.47.17-2.19.2-.8.03-1.6.07-2.39.07-.05,0-.03-.06.02-.07Z"/>
            <path class="cls-23" d="m196.71,119.17c1.4-.14,2.84-.35,4.19-.3.08,0,.05.11-.03.13-1.42.22-2.8.19-4.17.23-.04,0-.02-.05.02-.06Z"/>
            <path class="cls-23" d="m202.23,120.61c.26-1.56.76-3.23,1.32-4.81.02-.05.09-.06.08,0-.29,1.57-.68,3.22-1.27,4.81-.03.08-.14.09-.13,0Z"/>
          </g>
          <g>
            <path class="cls-27" d="m186.48,93.15c.01,4.62-1.59,7.29-3.59,7.41l-.04-16.91c.68.95,3.62,5.32,3.63,9.5Z"/>
            <path class="cls-25" d="m182.71,83.46s.05.07.14.19l.04,16.91s-.09,0-.14,0c-2.07,0-3.76-2.68-3.77-7.4-.01-4.72,3.72-9.71,3.72-9.71Z"/>
            <path class="cls-23" d="m182.77,96.76c0-1.14,0-2.28,0-3.41,0-2.28.02-4.55.06-6.83,0-.03.05-.03.05,0,.03,1.54.05,3.07.07,4.61.59-.49,1.24-1,1.96-1.39.04-.02.09.02.06.05-.56.54-1.31,1.03-2.02,1.47,0,.7.02,1.39.02,2.09,0,1.14,0,2.28.02,3.41,0,1.13.11,2.29-.01,3.41,0,.08-.17.08-.17,0-.13-1.13-.03-2.28-.03-3.41Z"/>
            <path class="cls-23" d="m182.85,95.33c.99-.84,2.09-1.64,3.27-2.35.03-.02.07,0,.04.03-.97.84-2.09,1.64-3.25,2.36-.04.02-.09-.01-.06-.04Z"/>
            <path class="cls-23" d="m180.36,91.44c.46.29.9.6,1.35.9.4.27.83.54,1.14.86.03.03-.02.06-.06.04-.46-.22-.83-.53-1.21-.81-.42-.32-.85-.64-1.26-.96-.02-.02.01-.04.04-.03Z"/>
            <path class="cls-23" d="m180.45,95.77c.78.52,1.61,1.01,2.28,1.6.04.04-.02.08-.07.05-.82-.48-1.52-1.07-2.24-1.63-.02-.02.01-.04.03-.02Z"/>
            <path class="cls-23" d="m182.69,98.81c.79-.69,1.74-1.34,2.69-1.92.03-.02.07,0,.05.03-.8.68-1.7,1.37-2.66,1.94-.05.03-.11-.01-.07-.05Z"/>
          </g>
          <g>
            <path class="cls-27" d="m202.74,135.62c.99,5.2-.24,8.55-2.47,9.11l-3.63-19.04c.97.93,5.21,5.22,6.11,9.93Z"/>
            <path class="cls-25" d="m196.44,125.51s.07.06.2.19l3.63,19.04c-.05.01-.1.03-.16.04-2.33.44-4.8-2.22-5.81-7.54-1.01-5.32,2.14-11.73,2.14-11.73Z"/>
            <path class="cls-23" d="m199.33,140.47c-.24-1.28-.48-2.56-.73-3.85-.48-2.56-.94-5.13-1.39-7.7,0-.03.06-.04.06-.01.36,1.73.71,3.45,1.06,5.18.55-.68,1.19-1.39,1.91-1.98.04-.03.11,0,.08.04-.52.73-1.25,1.44-1.97,2.08.16.78.31,1.57.46,2.35.25,1.28.49,2.56.74,3.84.25,1.27.61,2.55.71,3.85,0,.09-.17.13-.2.04-.38-1.24-.52-2.57-.76-3.84Z"/>
            <path class="cls-23" d="m199.11,138.85c.93-1.15,2.01-2.29,3.18-3.34.03-.03.08,0,.05.03-.92,1.16-2.01,2.3-3.16,3.34-.04.04-.1,0-.07-.03Z"/>
            <path class="cls-23" d="m195.49,134.99c.58.23,1.14.48,1.71.73.51.22,1.05.43,1.47.73.03.02-.01.08-.06.06-.57-.16-1.05-.42-1.54-.66-.54-.27-1.09-.54-1.62-.82-.03-.02,0-.05.04-.04Z"/>
            <path class="cls-23" d="m196.5,139.85c.99.42,2.02.8,2.91,1.32.05.03,0,.09-.07.07-1.03-.37-1.94-.89-2.87-1.36-.03-.01,0-.04.03-.03Z"/>
            <path class="cls-23" d="m199.67,142.81c.74-.95,1.67-1.88,2.62-2.74.03-.03.08,0,.06.03-.76.94-1.62,1.9-2.59,2.75-.05.04-.13,0-.09-.04Z"/>
          </g>
          <g>
            <path class="cls-27" d="m187.16,126.83c3.62,4.43,4.18,8.25,2.35,9.94l-13.27-16.23c1.4.38,7.64,2.28,10.92,6.29Z"/>
            <path class="cls-25" d="m175.95,120.47s.1.02.28.07l13.27,16.23s-.08.08-.13.11c-1.99,1.62-5.71.36-9.41-4.17s-4.01-12.25-4.01-12.25Z"/>
            <path class="cls-23" d="m186.42,133.2c-.89-1.1-1.78-2.19-2.67-3.28-1.78-2.19-3.54-4.39-5.29-6.61-.02-.02.03-.07.05-.04,1.23,1.45,2.46,2.91,3.68,4.38.18-.93.41-1.94.79-2.87.02-.05.1-.05.1,0-.12.96-.45,2.02-.79,2.99.55.66,1.1,1.33,1.65,1.99.89,1.09,1.79,2.18,2.69,3.27.89,1.08,1.89,2.11,2.66,3.29.05.08-.1.21-.17.14-1-.98-1.81-2.17-2.7-3.26Z"/>
            <path class="cls-23" d="m185.37,131.77c.29-1.58.73-3.22,1.31-4.81.01-.04.07-.04.06,0-.27,1.57-.72,3.22-1.28,4.81-.02.05-.1.06-.09,0Z"/>
            <path class="cls-23" d="m179.94,129.97c.67-.08,1.34-.13,2-.19.6-.05,1.21-.13,1.77-.06.04,0,.02.08-.02.09-.62.14-1.21.14-1.8.16-.66.02-1.32.05-1.97.06-.04,0-.02-.05.02-.06Z"/>
            <path class="cls-23" d="m183.41,134.06c1.15-.11,2.34-.28,3.44-.25.07,0,.04.09-.03.1-1.17.18-2.3.16-3.43.19-.03,0-.02-.04.01-.05Z"/>
            <path class="cls-23" d="m187.94,135.24c.21-1.28.62-2.65,1.08-3.95.02-.04.08-.05.07,0-.24,1.29-.56,2.65-1.04,3.95-.02.07-.12.07-.11,0Z"/>
          </g>
          <g>
            <path class="cls-27" d="m223.72,134.77c-5.62,1.1-9.25-.21-9.87-2.62l20.57-4.04c-1,1.05-5.62,5.66-10.7,6.66Z"/>
            <path class="cls-25" d="m234.62,127.89s-.07.08-.2.21l-20.57,4.04c-.01-.06-.03-.11-.04-.17-.49-2.52,2.37-5.2,8.12-6.33,5.75-1.13,12.69,2.24,12.69,2.24Z"/>
            <path class="cls-23" d="m218.46,131.11c1.38-.27,2.77-.54,4.15-.81,2.77-.54,5.54-1.05,8.32-1.54.03,0,.04.06.01.07-1.86.4-3.73.79-5.6,1.17.74.6,1.51,1.27,2.15,2.05.03.04,0,.12-.04.09-.79-.56-1.57-1.35-2.27-2.11-.85.17-1.69.35-2.54.52-1.38.27-2.77.55-4.15.82-1.37.28-2.76.67-4.16.79-.1,0-.14-.18-.04-.21,1.34-.42,2.77-.57,4.15-.84Z"/>
            <path class="cls-23" d="m220.21,130.86c1.25,1,2.49,2.16,3.62,3.42.03.03,0,.08-.03.06-1.26-.99-2.49-2.16-3.63-3.4-.04-.04,0-.11.04-.08Z"/>
            <path class="cls-23" d="m224.36,126.92c-.25.63-.51,1.24-.78,1.85-.24.55-.46,1.13-.78,1.59-.03.04-.08-.02-.07-.06.17-.61.45-1.13.71-1.66.29-.59.57-1.19.88-1.76.02-.03.06,0,.04.04Z"/>
            <path class="cls-23" d="m219.12,128.05c-.44,1.07-.85,2.19-1.41,3.15-.03.06-.1,0-.08-.07.39-1.11.95-2.1,1.45-3.11.01-.03.05,0,.04.03Z"/>
            <path class="cls-23" d="m215.94,131.49c1.03.79,2.04,1.8,2.97,2.82.03.03,0,.09-.03.06-1.02-.82-2.07-1.75-2.99-2.78-.05-.05,0-.14.04-.1Z"/>
          </g>
          <g>
            <rect class="cls-4" x="177.02" y="162.74" width="20.43" height="3.27"/>
            <rect class="cls-25" x="177.02" y="166.01" width="20.43" height="1.42"/>
            <polygon class="cls-4" points="177.02 183.87 177.02 167.43 197.45 167.43 197.45 175.81 188.76 183.87 177.02 183.87"/>
            <polygon class="cls-32" points="188.76 183.87 197.45 175.81 197.45 183.87 188.76 183.87"/>
            <polygon class="cls-27" points="197.45 183.87 197.45 185.28 187.21 185.28 188.74 183.87 197.45 183.87"/>
            <polygon class="cls-25" points="177.02 183.87 188.72 183.87 187.2 185.28 177.02 185.28 177.02 183.87"/>
            <path class="cls-4" d="m177.02,189.69v-4.4h10.22l-9.08,8.42c-.72-1.19-1.13-2.56-1.13-4.02Z"/>
            <path class="cls-32" d="m187.23,185.28h10.22v4.4c0,4.54-3.97,8.22-8.86,8.22h-2.71c-3.32,0-6.21-1.69-7.73-4.2l9.08-8.42Z"/>
          </g>
          <g>
            <path class="cls-27" d="m207.44,94.18c-6.82,1.41-11.26-.15-12.04-3.08l24.99-5.15c-1.2,1.29-6.77,6.96-12.95,8.23Z"/>
            <path class="cls-25" d="m220.62,85.69s-.08.09-.24.26l-24.99,5.15c-.02-.07-.04-.13-.05-.2-.63-3.06,2.83-6.36,9.81-7.8,6.98-1.44,15.47,2.59,15.47,2.59Z"/>
            <path class="cls-23" d="m200.99,89.79c1.68-.34,3.36-.69,5.05-1.03,3.36-.69,6.74-1.34,10.11-1.97.04,0,.05.07.02.08-2.26.51-4.53,1-6.8,1.49.91.72,1.86,1.53,2.64,2.48.04.05,0,.14-.05.11-.97-.67-1.92-1.62-2.78-2.55-1.03.22-2.05.44-3.08.66-1.68.35-3.36.7-5.04,1.05-1.67.35-3.35.85-5.05,1.01-.12.01-.17-.22-.05-.26,1.63-.53,3.37-.73,5.04-1.07Z"/>
            <path class="cls-23" d="m203.12,89.47c1.53,1.2,3.06,2.6,4.45,4.12.04.04,0,.1-.03.07-1.54-1.19-3.06-2.6-4.46-4.1-.05-.05,0-.14.04-.1Z"/>
            <path class="cls-23" d="m208.13,84.63c-.29.77-.61,1.51-.92,2.27-.28.68-.54,1.38-.93,1.95-.03.04-.1-.02-.08-.08.19-.75.53-1.38.84-2.03.35-.72.68-1.45,1.05-2.15.02-.04.07,0,.05.05Z"/>
            <path class="cls-23" d="m201.76,86.05c-.53,1.3-1.01,2.68-1.68,3.85-.04.07-.12,0-.1-.09.46-1.36,1.13-2.57,1.73-3.8.02-.03.06,0,.04.04Z"/>
            <path class="cls-23" d="m197.93,90.28c1.26.96,2.51,2.17,3.65,3.4.04.04,0,.11-.03.08-1.25-.98-2.54-2.1-3.67-3.36-.06-.06-.01-.17.05-.12Z"/>
          </g>
          <g>
            <path class="cls-27" d="m216.73,109.7c-3.92,5.76-8.18,7.73-10.79,6.18l14.34-21.1c.04,1.77-.01,9.71-3.56,14.92Z"/>
            <path class="cls-25" d="m220.28,94.42s0,.13.01.36l-14.34,21.1c-.06-.04-.12-.07-.18-.11-2.58-1.76-2.4-6.53,1.61-12.43,4.01-5.89,12.9-8.92,12.9-8.92Z"/>
            <path class="cls-23" d="m209.04,111.04c.97-1.42,1.94-2.84,2.9-4.25,1.94-2.84,3.9-5.65,5.88-8.46.02-.03.09.01.07.05-1.27,1.94-2.55,3.88-3.84,5.8,1.15-.12,2.4-.19,3.62-.07.06,0,.1.1.04.11-1.16.19-2.51.17-3.77.11-.58.87-1.17,1.75-1.76,2.62-.96,1.42-1.93,2.84-2.89,4.27-.95,1.41-1.81,2.94-2.92,4.24-.08.09-.27-.04-.22-.15.8-1.51,1.91-2.87,2.87-4.28Z"/>
            <path class="cls-23" d="m210.35,109.33c1.94-.2,4.01-.26,6.07-.14.05,0,.08.07.03.07-1.93.22-4,.27-6.06.17-.07,0-.1-.09-.04-.1Z"/>
            <path class="cls-23" d="m210.57,102.36c.32.76.62,1.51.92,2.27.27.68.57,1.37.69,2.05,0,.05-.08.06-.11,0-.38-.67-.58-1.36-.81-2.04-.25-.76-.52-1.52-.75-2.27-.01-.04.05-.05.07,0Z"/>
            <path class="cls-23" d="m206.99,107.83c.53,1.3,1.14,2.63,1.48,3.93.02.08-.09.08-.13,0-.62-1.3-.98-2.63-1.41-3.93-.01-.04.04-.04.06,0Z"/>
            <path class="cls-23" d="m207.19,113.53c1.57-.2,3.31-.19,4.98-.1.06,0,.08.07.03.08-1.58.17-3.28.26-4.97.15-.09,0-.13-.11-.04-.12Z"/>
          </g>
          <g>
            <path class="cls-27" d="m195.19,71.12c2.32,6.57,1.38,11.17-1.41,12.35l-8.5-24.05c1.44,1.02,7.81,5.76,9.92,11.71Z"/>
            <path class="cls-25" d="m184.98,59.21s.11.07.29.2l8.5,24.05c-.06.03-.13.05-.19.08-2.95,1.04-6.68-1.94-9.06-8.66-2.38-6.72.46-15.68.46-15.68Z"/>
            <path class="cls-23" d="m191.72,78.1c-.57-1.62-1.14-3.24-1.71-4.86-1.14-3.24-2.24-6.49-3.33-9.75-.01-.04.06-.06.08-.03.81,2.17,1.61,4.35,2.4,6.53.59-1,1.27-2.05,2.09-2.96.04-.05.14-.02.12.03-.53,1.05-1.34,2.12-2.14,3.1.36.99.72,1.97,1.07,2.96.57,1.62,1.15,3.24,1.73,4.85.57,1.61,1.3,3.2,1.69,4.87.03.12-.19.2-.25.09-.74-1.54-1.18-3.23-1.74-4.85Z"/>
            <path class="cls-23" d="m191.11,76.04c.98-1.68,2.16-3.38,3.48-4.97.03-.04.1-.02.08.02-.96,1.69-2.15,3.38-3.45,4.98-.04.05-.13.03-.1-.03Z"/>
            <path class="cls-23" d="m185.63,71.74c.8.19,1.58.4,2.37.61.71.19,1.44.35,2.06.66.05.02,0,.1-.06.09-.77-.09-1.44-.34-2.13-.56-.76-.24-1.53-.48-2.28-.74-.04-.02,0-.07.04-.06Z"/>
            <path class="cls-23" d="m187.91,77.85c1.36.35,2.79.64,4.04,1.14.08.03.01.12-.07.11-1.41-.27-2.7-.77-4-1.2-.04-.01,0-.06.03-.05Z"/>
            <path class="cls-23" d="m192.62,81.07c.77-1.38,1.81-2.78,2.87-4.08.04-.04.11-.02.08.02-.8,1.38-1.74,2.8-2.82,4.09-.06.07-.17.03-.13-.04Z"/>
          </g>
        </g>
      </g>
      <g>
        <g>
          <g>
            <g>
              <polygon class="cls-20" points="82.54 194.24 84.24 194.4 90.68 95.87 88.98 95.7 82.54 194.24"/>
              <polygon class="cls-20" points="145.35 194.32 143.65 194.49 137.37 95.87 139.07 95.7 145.35 194.32"/>
            </g>
            <rect class="cls-4" x="75.89" y="92.46" width="76.28" height="2.34" transform="translate(228.06 187.25) rotate(180)"/>
            <rect class="cls-23" x="82.88" y="94.8" width="62.3" height="2.34" transform="translate(228.06 191.93) rotate(180)"/>
            <g>
              <polygon class="cls-23" points="75.52 199.99 77.61 200.17 85.33 95.88 83.24 95.7 75.52 199.99"/>
              <polygon class="cls-23" points="152.53 198.99 150.44 199.17 142.73 95.88 144.82 95.7 152.53 198.99"/>
            </g>
          </g>
          <g>
            <g>
              <path class="cls-6" d="m33.84,192.28v1.27c0,1.8,6.43,3.26,14.36,3.26s14.36-1.46,14.36-3.26v-1.27c0-1.8-6.43-3.26-14.36-3.26s-14.36,1.46-14.36,3.26Z"/>
              <path class="cls-4" d="m33.84,192.28c0-1.8,6.43-3.26,14.36-3.26,1.43,0,2.81.05,4.11.14l-6.35,6.35c-6.87-.24-12.12-1.59-12.12-3.22Z"/>
              <path class="cls-32" d="m62.56,192.28c0,1.8-6.43,3.26-14.36,3.26-.76,0-1.51-.01-2.24-.04l6.35-6.35c5.93.4,10.25,1.65,10.25,3.13Z"/>
            </g>
            <path class="cls-6" d="m48.39,191.29h0c.41,0,.74-.33.74-.74v-62.92h-1.48v62.92c0,.41.33.74.74.74Z"/>
            <path class="cls-6" d="m35.45,170.55c0-2.88,6.47-4.39,12.87-4.39s12.87,1.51,12.87,4.39-6.47,4.39-12.87,4.39-12.87-1.51-12.87-4.39Zm1.36,0c0,1.23,4.48,3.03,11.51,3.03s11.51-1.79,11.51-3.03-4.48-3.03-11.51-3.03-11.51,1.79-11.51,3.03Z"/>
            <g>
              <path class="cls-5" d="m62.56,127.07v4.53c0,1.8-6.43,3.26-14.36,3.26s-14.36-1.46-14.36-3.26v-4.53h28.72Z"/>
              <ellipse class="cls-4" cx="48.2" cy="127.07" rx="14.36" ry="3.26"/>
            </g>
          </g>
          <g>
            <g>
              <path class="cls-13" d="m153.48,63.82c.57.78.82,1.8.57,2.84l-5.72,23.51h-21.2l26.35-26.35Z"/>
              <path class="cls-24" d="m92.53,90.17h33.1l-1.93,1.93h-33.1c0-1.07.87-1.93,1.93-1.93Z"/>
              <path class="cls-2" d="m148.32,90.17c0,1.07-.86,1.93-1.93,1.93h-22.7l1.93-1.93h22.7Z"/>
              <path class="cls-4" d="m90.6,92.1h17.42c1.07,0,1.93-.87,1.93-1.93h-17.42c-1.07,0-1.93.87-1.93,1.93Z"/>
              <path class="cls-34" d="m109.95,90.17l6.12-25.14c.37-1.54,1.75-2.62,3.33-2.62h31.31c1.15,0,2.15.56,2.76,1.4l-26.35,26.35h-17.18Z"/>
              <path class="cls-8" d="m108.33,90.17h38.38l6.04-24.79c.37-1.51-.78-2.97-2.33-2.97h-32.63c-1.58,0-2.96,1.08-3.33,2.62l-6.12,25.14Z"/>
              <path class="cls-3" d="m129.63,83.6c-6.65,0-5.82-5.82-9.15-9.15-2.94-2.1-5.25-2.29-7.24-1.64l-2.42,10.06c.75-.1,1.53-.1,2.18-.1,3.33.83,6.65,4.99,9.15,4.16,8.88-1.18,16.92-1.52,23.81,2.59l1.7-7.04c-5.69-.61-12.11,1.13-18.03,1.13Z"/>
              <path class="cls-12" d="m122.15,86.93c-2.49.83-5.82-3.33-9.15-4.16-.65,0-1.42,0-2.18.1l-1.76,7.3h36.74l.16-.66c-6.89-4.11-14.93-3.77-23.81-2.59Z"/>
              <path class="cls-9" d="m147.09,76.95c-9.98,3.33-16.63,1.66-22.45-5.82-2.16-2.87-6.79-2.02-10.7-1.2l-.7,2.89c1.99-.65,4.29-.46,7.24,1.64,3.33,3.33,2.49,9.15,9.15,9.15,5.92,0,12.34-1.74,18.03-1.13l1.36-5.66c-.59-.12-1.23-.09-1.93.14Z"/>
              <path class="cls-10" d="m149.4,63.33h-31.28c-1.52,0-2.83,1.05-3.19,2.53l-.98,4.06c3.9-.82,8.54-1.67,10.7,1.2,5.82,7.48,12.47,9.15,22.45,5.82.71-.24,1.35-.27,1.93-.14l2.57-10.65c.35-1.44-.73-2.82-2.2-2.82Z"/>
            </g>
            <path class="cls-29" d="m117.79,68.64h-1.17c-.2,0-.34-.18-.29-.37l.53-2.08c.03-.13.15-.23.29-.23h1.17c.2,0,.34.18.29.37l-.53,2.08c-.03.13-.15.23-.29.23Z"/>
            <path class="cls-29" d="m117,72.65h-1.17c-.2,0-.34-.18-.29-.37l.53-2.08c.03-.13.15-.23.29-.23h1.17c.2,0,.34.18.29.37l-.53,2.08c-.03.13-.15.23-.29.23Z"/>
            <path class="cls-29" d="m116.05,76.66h-1.17c-.2,0-.34-.18-.29-.37l.53-2.08c.03-.13.15-.23.29-.23h1.17c.2,0,.34.18.29.37l-.53,2.08c-.03.13-.15.23-.29.23Z"/>
            <path class="cls-29" d="m121.29,68.64h-1.17c-.2,0-.34-.18-.29-.37l.53-2.08c.03-.13.15-.23.29-.23h1.17c.2,0,.34.18.29.37l-.53,2.08c-.03.13-.15.23-.29.23Z"/>
          </g>
        </g>
        <g>
          <g>
            <g>
              <path class="cls-22" d="m79.6,78.93c-5.47-.12-10.03-.23-10.03-.23-.26-8.92,1.6-18.45-.11-27.26-.62-3.18-2.73-6.91-5.9-8.26-4.63-1.97-6.84,1.78-7.61,5.83-.36,1.86-.41,3.79-.24,5.24.27,2.41,2.87,27.73,4.14,34.38,0,0,9.85-1.37,19.74-2.74-.14-2.32-.4-4.59,0-6.96Z"/>
              <path class="cls-30" d="m98.15,79.35s-10.32-.23-18.55-.42c-.41,2.37-.15,4.64,0,6.96,10-1.39,20.04-2.78,20.04-2.78l-1.49-3.76Z"/>
            </g>
            <path class="cls-1" d="m103.49,83.93l.42-.62c1.48.38,2.71,1.19,3.7,2.41.46.57,1.25-.25.8-.81-1.22-1.51-2.89-2.49-4.8-2.83l-5.42-2.72-1.84,2.96,1.02,3.29.78.48c.06.07.14.12.23.16.03.01.06.03.08.04l2.41,1.49c.76.68,1.4,1.51,1.88,2.46.34.66,1.32.07.98-.58-.57-1.11-1.32-2.04-2.21-2.81l.33-.49c1.56.5,2.89,1.42,3.96,2.75.46.57,1.25-.25.8-.81-1.1-1.36-2.49-2.35-4.09-2.93l.29-.42c1.91.42,3.51,1.42,4.76,2.97.46.57,1.25-.25.8-.81-1.27-1.58-2.95-2.66-4.87-3.17Z"/>
          </g>
          <path class="cls-14" d="m61.65,37.81c1.33-.36,2.36-1.45,3.66-1.91,2.12-.75,4.45.28,6.69.13,2.13-.14,4.14-1.42,5.17-3.29,1.02-1.87,1.02-4.26,0-6.12,1.24-1.33,2.49-2.68,3.38-4.26.89-1.59,1.4-3.45,1.04-5.24-.36-1.78-1.73-3.42-3.51-3.75-.05-1.46-.81-2.84-1.88-3.85-1.06-1-2.42-1.66-3.81-2.11-4.08-1.32-8.81-.88-12.3,1.62-3.49,2.5-5.46,7.14-4.38,11.29-1.78.52-3.25,2-3.76,3.78-.51,1.78-.03,3.81,1.21,5.19-1.45.43-2.25,2.17-1.96,3.66.29,1.49,1.46,2.69,2.8,3.41,1.34.72,2.85,1.02,4.34,1.31,1.09.22,2.24.43,3.31.14Z"/>
          <path class="cls-16" d="m39.64,200.05c12.48-1.11,25.03-1.63,37.56-1.91.21-2.05,2.58-4.02,5.55-3.93,16.53.51,52.94-1.49,69.21.55,2.49.31,2.26,3.1-.15,3.54-12.13,2.24-43.83,2.31-56.3,2.8.77,2.39-.42,5.18-4.31,5.35-17.27.78-34.65,1.31-51.85.76-5.01-.16-4.65-6.74.3-7.18Z"/>
          <g>
            <path class="cls-19" d="m68.41,102.24l-20.05-8.85-.05,1.34c-.28,7.4.54,14.83,2.43,21.99,1.93,7.31,5.99,13.83,7.98,21.1,1.17,4.27,1.97,8.66,2.77,13.01,1.94,10.52,3.52,21.1,5.01,31.69.69,4.87,1.36,9.75,1.98,14.63,1.22-.02,2.44-.05,3.66-.08l4.17-30.73c1.87-13.79,1.11-27.8-2.24-41.3l-5.66-22.79Z"/>
            <polygon class="cls-20" points="68.38 198.17 72.04 198.08 76.68 200.35 82.48 200.83 83.36 202.1 67.15 202.87 68.38 198.17"/>
          </g>
          <g>
            <path class="cls-21" d="m57.94,104.26l-18.55-11.67-.93,4.97c-1.92,10.3-1.15,20.92,2.25,30.83l1.5,4.36c3.1,9.04,1.99,65.42,1.99,65.42,1.21.15,2.42.3,3.63.45l8.59-29.8c3.86-13.37,5.14-27.34,3.79-41.19l-2.28-23.37Z"/>
            <polygon class="cls-20" points="43.96 199.17 47.59 199.62 51.85 202.53 57.52 203.85 58.2 205.24 42.05 203.64 43.96 199.17"/>
          </g>
          <path class="cls-18" d="m58.11,37.31c-3.89.19-7.42,2.33-9.87,5.07-2.45,2.74-3.98,6.04-5.41,9.32-4.92,11.32-7.55,58.95-5.23,62.61l33.16-2.98c.71-4.43-4.84-38.84-3.35-51.99.69-6.09,1.68-12.86-2.34-17.78l-6.96-4.25Z"/>
          <path class="cls-15" d="m74.45,19.03c1.07.58,1.4,1.99,1.23,3.19-.17,1.2-.71,2.32-.96,3.51-.25,1.19-.11,2.59.82,3.37.45.38,1.13.69,1.12,1.28-.02.78-1.12.9-1.81,1.27-1.06.57-1.25,1.99-1.32,3.2-.08,1.2-.32,2.63-1.43,3.13-1.41.63-2.85-.79-4.34-1.19-1.38-.37-2.89.18-3.99,1.09-1.11.91-4.05,6.21-4.81,7.42-2.51-.31-4.63-3.94-4.63-7.69l7.41-8.74c-.87.09-1.72-.48-2.14-1.25-.42-.77-.31-1.81.31-2.44.61-.63,3.13-1.38,3.08,1.51,0,0,1.74-1.59,2.49-3.92,1.64-5.1,8.98-3.75,8.98-3.75Z"/>
          <g>
            <path class="cls-7" d="m87.54,75.13h5.65c.62,0,1.12.5,1.12,1.12v9.48c0,1.17-.95,2.12-2.12,2.12h-3.65c-1.17,0-2.12-.95-2.12-2.12v-9.48c0-.62.5-1.13,1.13-1.13Z" transform="translate(-5.85 7) rotate(-4.3)"/>
            <g>
              <path class="cls-17" d="m67.76,80.92c-5.47-.12-10.03-.23-10.03-.23-.26-8.92,1.6-18.45-.11-27.26-.62-3.18-2.73-6.91-5.9-8.26-4.63-1.97-6.84,1.78-7.61,5.83-.36,1.86-.41,3.79-.24,5.24.27,2.41,2.87,27.73,4.14,34.38,0,0,9.85-1.37,19.74-2.74-.14-2.32-.4-4.59,0-6.96Z"/>
              <path class="cls-28" d="m86.31,81.34s-10.32-.23-18.55-.42c-.41,2.37-.15,4.64,0,6.96,10-1.39,20.04-2.78,20.04-2.78l-1.49-3.76Z"/>
            </g>
            <path class="cls-31" d="m96.33,80.53c.73.05.68-1.09-.05-1.14-2.02-.15-3.96.34-5.65,1.39l-.17-.72c1.29-.82,2.72-1.17,4.29-1.05.73.05.68-1.09-.05-1.14-1.94-.14-3.79.41-5.34,1.57l-5.69,2.1.9,3.37,3.1,1.5.88-.24c.09,0,.18-.02.27-.06.03-.01.06-.02.08-.04l2.74-.75c1.02-.09,2.06.01,3.09.31.71.2.95-.91.25-1.11-1.2-.34-2.39-.43-3.57-.3l-.13-.58c1.43-.8,3.01-1.14,4.71-1.01.73.05.68-1.09-.05-1.14-1.74-.13-3.42.21-4.93.99l-.11-.5c1.62-1.11,3.43-1.6,5.42-1.45Z"/>
            <path class="cls-11" d="m90.6,68.71c.22-1.49-1.09-2.62-2.42-2.92-.84-.19-1.17,1.02-.35,1.29.75.24,1.56.61,1.42,1.65-.05.34-.78,1-1.02,1.32-.41.54-.61,1.4-.52,2.06.15,1.07,1.23,2.71,2.47,2,.09-.05.14-.2.08-.29-.1-.14-.19-.31-.33-.4-1.11-.72-1.15-1.9-.39-2.89.49-.64.95-.97,1.07-1.82Z"/>
          </g>
        </g>
      </g>
    </g>
  </g>
</svg>