<?xml version="1.0" encoding="UTF-8"?>
<svg xmlns="http://www.w3.org/2000/svg" xmlns:xlink="http://www.w3.org/1999/xlink" viewBox="0 0 189.35 218.26">
  <defs>
    <style>
      .cls-1 {
        fill: #cfd8dc;
      }

      .cls-2 {
        fill: #fff;
      }

      .cls-3 {
        fill: url(#linear-gradient-17);
      }

      .cls-4 {
        fill: #efebe9;
      }

      .cls-5 {
        fill: url(#linear-gradient-8);
      }

      .cls-5, .cls-6, .cls-7, .cls-8, .cls-9, .cls-10, .cls-11, .cls-12 {
        mix-blend-mode: multiply;
        opacity: .58;
      }

      .cls-13 {
        fill: #37474f;
      }

      .cls-14 {
        fill: url(#linear-gradient-15);
      }

      .cls-15 {
        fill: #546e7a;
      }

      .cls-16 {
        fill: url(#linear-gradient-18);
      }

      .cls-6 {
        fill: url(#linear-gradient-4);
      }

      .cls-17 {
        fill: url(#linear-gradient-14);
      }

      .cls-18, .cls-19 {
        fill: #005077;
      }

      .cls-20 {
        isolation: isolate;
      }

      .cls-7 {
        fill: url(#linear-gradient-7);
      }

      .cls-21 {
        fill: #d4c4c1;
      }

      .cls-19 {
        opacity: .1;
      }

      .cls-8 {
        fill: url(#linear-gradient-2);
      }

      .cls-22 {
        fill: url(#linear-gradient-11);
      }

      .cls-23 {
        fill: url(#Degradado_sin_nombre_32-3);
      }

      .cls-24 {
        fill: url(#Degradado_sin_nombre_32-2);
      }

      .cls-25 {
        fill: url(#Degradado_sin_nombre_38);
      }

      .cls-26 {
        fill: #002856;
      }

      .cls-27 {
        fill: url(#Degradado_sin_nombre_38-2);
      }

      .cls-28 {
        fill: #78909c;
      }

      .cls-29 {
        fill: url(#linear-gradient-10);
      }

      .cls-9 {
        fill: url(#linear-gradient-5);
      }

      .cls-30 {
        fill: url(#Degradado_sin_nombre_32);
      }

      .cls-31 {
        fill: url(#linear-gradient-16);
      }

      .cls-32 {
        fill: #eeebd4;
      }

      .cls-33 {
        fill: #212121;
      }

      .cls-34 {
        fill: #62afbd;
      }

      .cls-35 {
        fill: #809ead;
      }

      .cls-10 {
        fill: url(#linear-gradient);
      }

      .cls-36 {
        fill: #008da7;
      }

      .cls-37 {
        fill: url(#linear-gradient-9);
      }

      .cls-11 {
        fill: url(#linear-gradient-6);
      }

      .cls-38 {
        fill: #b0bec5;
      }

      .cls-12 {
        fill: url(#linear-gradient-3);
      }

      .cls-39 {
        fill: #d6d5ca;
      }

      .cls-40 {
        fill: url(#linear-gradient-12);
      }

      .cls-41 {
        fill: url(#linear-gradient-13);
      }
    </style>
    <linearGradient id="linear-gradient" x1="97.2" y1="-64.58" x2="97.2" y2="-54.85" gradientTransform="translate(-42.97 102.34) rotate(14.55) scale(.91 1)" gradientUnits="userSpaceOnUse">
      <stop offset=".01" stop-color="#212121"/>
      <stop offset="1" stop-color="#212121" stop-opacity="0"/>
    </linearGradient>
    <linearGradient id="linear-gradient-2" x1="40.09" y1="36.53" x2="40.09" y2="41.32" gradientTransform="matrix(1, 0, 0, 1, 0, 0)" xlink:href="#linear-gradient"/>
    <linearGradient id="linear-gradient-3" x1="44.58" y1="142.07" x2="44.58" y2="151.8" gradientTransform="translate(-24.43 -83.27) rotate(-7.99) scale(.91 1)" xlink:href="#linear-gradient"/>
    <linearGradient id="linear-gradient-4" x1="66.93" y1="40.23" x2="66.93" y2="45.02" gradientTransform="matrix(1, 0, 0, 1, 0, 0)" xlink:href="#linear-gradient"/>
    <linearGradient id="linear-gradient-5" x1="74.67" y1="48.16" x2="74.67" y2="52.95" gradientTransform="matrix(1, 0, 0, 1, 0, 0)" xlink:href="#linear-gradient"/>
    <linearGradient id="linear-gradient-6" x1="82.85" y1="45.82" x2="82.85" y2="50.61" gradientTransform="matrix(1, 0, 0, 1, 0, 0)" xlink:href="#linear-gradient"/>
    <linearGradient id="linear-gradient-7" x1="78.19" y1="32.32" x2="78.19" y2="37.1" gradientTransform="matrix(1, 0, 0, 1, 0, 0)" xlink:href="#linear-gradient"/>
    <linearGradient id="linear-gradient-8" x1="59.24" y1="29.66" x2="59.24" y2="34.45" gradientTransform="matrix(1, 0, 0, 1, 0, 0)" xlink:href="#linear-gradient"/>
    <linearGradient id="Degradado_sin_nombre_38" data-name="Degradado sin nombre 38" x1="100.43" y1="182.84" x2="91.6" y2="139.52" gradientUnits="userSpaceOnUse">
      <stop offset="0" stop-color="#d81b60"/>
      <stop offset="1" stop-color="#002856"/>
    </linearGradient>
    <linearGradient id="Degradado_sin_nombre_38-2" data-name="Degradado sin nombre 38" x1="89.96" y1="131.43" x2="94.46" y2="213.4" xlink:href="#Degradado_sin_nombre_38"/>
    <linearGradient id="Degradado_sin_nombre_32" data-name="Degradado sin nombre 32" x1="87.06" y1="101.85" x2="82.06" y2="76.12" gradientUnits="userSpaceOnUse">
      <stop offset="0" stop-color="#008da7"/>
      <stop offset="1" stop-color="#002856"/>
    </linearGradient>
    <linearGradient id="linear-gradient-9" x1="93.12" y1="95.87" x2="106.95" y2="95.87" gradientUnits="userSpaceOnUse">
      <stop offset="0" stop-color="#fddedc"/>
      <stop offset="1" stop-color="#fdbcb8"/>
    </linearGradient>
    <linearGradient id="linear-gradient-10" x1="106.25" y1="93.47" x2="113.65" y2="93.47" xlink:href="#linear-gradient-9"/>
    <linearGradient id="linear-gradient-11" x1="110.5" y1="97.23" x2="112.36" y2="97.23" xlink:href="#linear-gradient-9"/>
    <linearGradient id="linear-gradient-12" x1="111.29" y1="96.79" x2="113.63" y2="96.79" xlink:href="#linear-gradient-9"/>
    <linearGradient id="linear-gradient-13" x1="112.12" y1="96.26" x2="115.09" y2="96.26" xlink:href="#linear-gradient-9"/>
    <linearGradient id="linear-gradient-14" x1="112.79" y1="95.7" x2="115.76" y2="95.7" xlink:href="#linear-gradient-9"/>
    <linearGradient id="Degradado_sin_nombre_32-2" data-name="Degradado sin nombre 32" x1="77.02" y1="138.96" x2="67.52" y2="87.98" xlink:href="#Degradado_sin_nombre_32"/>
    <linearGradient id="linear-gradient-15" x1="73.34" y1="92.9" x2="73.35" y2="92.9" xlink:href="#linear-gradient-9"/>
    <linearGradient id="linear-gradient-16" x1="77.37" y1="88.03" x2="97.52" y2="88.03" xlink:href="#linear-gradient-9"/>
    <linearGradient id="Degradado_sin_nombre_32-3" data-name="Degradado sin nombre 32" x1="67.42" y1="105.73" x2="64.17" y2="70.25" xlink:href="#Degradado_sin_nombre_32"/>
    <linearGradient id="linear-gradient-17" x1="64.4" y1="60.22" x2="84.28" y2="60.22" xlink:href="#linear-gradient-9"/>
    <linearGradient id="linear-gradient-18" x1="94.13" y1="76.94" x2="104.03" y2="76.94" xlink:href="#linear-gradient-9"/>
  </defs>
  <g class="cls-20">
    <g id="_Слой_2" data-name="Слой 2">
      <g id="OBJECTS">
        <g>
          <g>
            <rect class="cls-34" x="13.19" y="19.52" width="78.8" height="55.36" rx="7" ry="7"/>
            <g>
              <polygon class="cls-10" points="68.82 73.87 45.55 68.7 48.62 51.8 71.99 57.87 68.82 73.87"/>
              <rect class="cls-2" x="46.33" y="54.59" width="24.15" height="15.11" transform="translate(17.48 -12.68) rotate(14.54)"/>
            </g>
            <g>
              <polygon class="cls-8" points="43.61 41.35 37.72 41.35 36.56 32.92 42.8 32.92 43.61 41.35"/>
              <rect class="cls-2" x="36.56" y="32.92" width="6.24" height="7.26"/>
            </g>
            <g>
              <polygon class="cls-12" points="49.18 58.91 25.71 63.05 22.07 46.26 45.98 42.91 49.18 58.91"/>
              <rect class="cls-2" x="23" y="44.51" width="24.15" height="15.11" transform="translate(-6.89 5.38) rotate(-7.98)"/>
            </g>
            <g>
              <polygon class="cls-6" points="70.45 45.05 64.56 45.05 63.4 36.61 69.64 36.61 70.45 45.05"/>
              <rect class="cls-2" x="63.4" y="36.61" width="6.24" height="7.26"/>
            </g>
            <g>
              <polygon class="cls-9" points="78.19 52.98 72.3 52.98 71.14 44.55 77.38 44.55 78.19 52.98"/>
              <rect class="cls-2" x="71.14" y="44.55" width="6.24" height="7.26"/>
            </g>
            <g>
              <polygon class="cls-11" points="86.37 50.64 80.48 50.64 79.33 42.21 85.56 42.21 86.37 50.64"/>
              <rect class="cls-2" x="79.33" y="42.21" width="6.24" height="7.26"/>
            </g>
            <g>
              <polygon class="cls-7" points="81.71 37.13 75.82 37.13 74.67 28.7 80.9 28.7 81.71 37.13"/>
              <rect class="cls-2" x="74.67" y="28.7" width="6.24" height="7.26"/>
            </g>
            <g>
              <polygon class="cls-5" points="62.77 34.48 56.88 34.48 55.72 26.05 61.96 26.05 62.77 34.48"/>
              <rect class="cls-2" x="55.72" y="26.05" width="6.24" height="7.26"/>
            </g>
            <path class="cls-33" d="m58.41,26.72c-.28,0-.28.43,0,.43s.28-.43,0-.43Z"/>
            <path class="cls-33" d="m39.68,34.04c-.28,0-.28.43,0,.43s.28-.43,0-.43Z"/>
            <path class="cls-33" d="m66.31,37.13c-.28,0-.28.43,0,.43s.28-.43,0-.43Z"/>
            <path class="cls-33" d="m77.78,29.31c-.28,0-.28.43,0,.43s.28-.43,0-.43Z"/>
            <path class="cls-33" d="m82.44,42.94c-.28,0-.28.43,0,.43s.28-.43,0-.43Z"/>
            <path class="cls-33" d="m74.05,45.99c-.28,0-.28.43,0,.43s.28-.43,0-.43Z"/>
            <path class="cls-33" d="m49.53,52.55c-.28,0-.28.43,0,.43s.28-.43,0-.43Z"/>
            <path class="cls-33" d="m44.82,44.05c-.28,0-.28.43,0,.43s.28-.43,0-.43Z"/>
            <path class="cls-33" d="m70.66,58.3c-.28,0-.28.43,0,.43s.28-.43,0-.43Z"/>
          </g>
          <g>
            <ellipse class="cls-19" cx="23.95" cy="215.82" rx="19.14" ry="2.45"/>
            <g>
              <g>
                <path class="cls-36" d="m12.18,173.21c3.06,15.06,8.58,23.01,13.35,22.44l-11.2-55.16c-.95,3.43-4.92,19.09-2.15,32.72Z"/>
                <path class="cls-34" d="m14.53,139.79s-.07.24-.2.69l11.2,55.16c.11-.01.22-.03.33-.05,4.85-.98,6.99-10.54,3.87-25.95-3.13-15.41-15.2-29.85-15.2-29.85Z"/>
                <path class="cls-18" d="m23.26,183.18c-.76-3.71-1.52-7.42-2.28-11.13-1.52-7.42-3.09-14.83-4.69-22.24-.02-.08-.14-.06-.13.03.95,5.03,1.93,10.05,2.92,15.07-1.7-1.33-3.57-2.67-5.51-3.59-.1-.05-.2.11-.12.18,1.67,1.49,3.75,2.74,5.71,3.82.45,2.27.89,4.55,1.35,6.82.75,3.71,1.5,7.43,2.25,11.14.74,3.69,1.27,7.51,2.31,11.13.07.26.44.18.41-.08-.46-3.74-1.46-7.46-2.22-11.15Z"/>
                <path class="cls-18" d="m22.13,178.56c-2.86-2.25-5.99-4.34-9.21-6.07-.08-.04-.15.06-.08.12,2.84,2.28,5.99,4.35,9.18,6.11.11.06.2-.08.1-.16Z"/>
                <path class="cls-18" d="m25.34,164.67c-.88,1.17-1.71,2.38-2.56,3.58-.76,1.08-1.58,2.15-2.09,3.37-.04.1.1.19.17.11.92-.95,1.58-2.12,2.28-3.24.78-1.25,1.57-2.48,2.3-3.75.04-.07-.06-.14-.11-.07Z"/>
                <path class="cls-18" d="m28.03,178.82c-1.47,2.06-3.08,4.07-4.26,6.32-.07.14.1.25.2.13,1.6-1.96,2.83-4.23,4.15-6.39.04-.06-.05-.12-.09-.06Z"/>
                <path class="cls-18" d="m24.83,189.84c-2.31-1.88-4.96-3.54-7.57-4.97-.09-.05-.16.07-.09.13,2.33,1.84,4.89,3.65,7.53,5.04.14.07.25-.1.13-.2Z"/>
              </g>
              <g>
                <path class="cls-36" d="m29.62,172.73c-4.67,11.92-4.4,19.97-.81,21.73l17.11-43.64c-2.22,1.97-12.07,11.13-16.3,21.91Z"/>
                <path class="cls-34" d="m46.37,150.42s-.16.14-.45.39l-17.11,43.64c.08.04.17.08.25.12,3.83,1.5,9.66-4.21,14.44-16.4,4.78-12.19,2.87-27.75,2.87-27.75Z"/>
                <path class="cls-18" d="m32.87,184.71c1.14-2.94,2.29-5.88,3.44-8.82,2.3-5.88,4.55-11.77,6.77-17.67.02-.07-.07-.1-.1-.04-1.61,3.95-3.2,7.9-4.77,11.86-.59-1.7-1.29-3.48-2.23-5-.05-.08-.19-.02-.17.07.5,1.8,1.38,3.61,2.27,5.25-.71,1.79-1.43,3.59-2.14,5.38-1.15,2.94-2.31,5.87-3.47,8.81-1.15,2.92-2.51,5.83-3.42,8.82-.06.21.22.33.32.13,1.37-2.82,2.35-5.87,3.49-8.8Z"/>
                <path class="cls-18" d="m34.16,180.97c-.98-2.87-2.23-5.75-3.69-8.41-.04-.07-.13-.03-.11.05.95,2.88,2.22,5.75,3.66,8.42.05.09.18.03.15-.06Z"/>
                <path class="cls-18" d="m42.69,172.71c-1.15.42-2.28.89-3.41,1.35-1.02.41-2.07.79-2.99,1.41-.07.05-.02.18.07.16,1.08-.25,2.07-.77,3.06-1.23,1.11-.52,2.22-1.03,3.31-1.58.06-.03.02-.12-.04-.1Z"/>
                <path class="cls-18" d="m38.17,183.82c-1.96.77-4,1.46-5.84,2.49-.11.06-.04.22.08.18,2.01-.65,3.89-1.68,5.79-2.59.05-.02.02-.1-.04-.08Z"/>
                <path class="cls-18" d="m30.95,190.08c-.76-2.36-1.87-4.72-3.05-6.9-.04-.07-.14-.03-.12.05.8,2.34,1.77,4.76,2.99,6.92.06.11.22.04.18-.08Z"/>
              </g>
              <g>
                <path class="cls-36" d="m4.32,180.11c4.92,10.4,10.35,15.18,13.72,13.91L.02,155.95c-.08,2.67-.15,14.75,4.3,24.16Z"/>
                <path class="cls-34" d="m.04,155.41s-.01.19-.02.54l18.02,38.07c.08-.03.16-.06.23-.09,3.34-1.58,3.19-8.91-1.84-19.55S.04,155.41.04,155.41Z"/>
                <path class="cls-18" d="m14.15,185.36c-1.22-2.56-2.43-5.12-3.65-7.68-2.43-5.12-4.9-10.22-7.39-15.31-.03-.06-.11-.02-.09.04,1.59,3.48,3.2,6.96,4.82,10.43-1.47-.66-3.07-1.3-4.64-1.62-.08-.02-.13.12-.05.15,1.48.78,3.21,1.32,4.83,1.75.73,1.57,1.46,3.14,2.2,4.71,1.21,2.56,2.42,5.12,3.63,7.69,1.2,2.55,2.27,5.23,3.67,7.67.1.17.35.05.28-.13-1-2.63-2.39-5.16-3.61-7.7Z"/>
                <path class="cls-18" d="m12.51,182.21c-2.48-1.12-5.13-2.08-7.78-2.76-.07-.02-.1.07-.04.1,2.47,1.15,5.13,2.09,7.76,2.79.09.02.13-.1.05-.13Z"/>
                <path class="cls-18" d="m12.35,171.55c-.43,1.01-.82,2.04-1.22,3.06-.36.92-.76,1.84-.92,2.82-.01.08.11.12.15.05.5-.86.77-1.82,1.08-2.76.34-1.04.69-2.08,1-3.14.02-.06-.07-.09-.09-.03Z"/>
                <path class="cls-18" d="m16.84,181.34c-.7,1.76-1.51,3.51-1.97,5.35-.03.11.12.16.17.06.81-1.71,1.3-3.58,1.87-5.39.02-.05-.06-.07-.08-.03Z"/>
                <path class="cls-18" d="m16.48,189.92c-2.01-.96-4.24-1.68-6.39-2.25-.07-.02-.11.08-.04.11,2.03.92,4.21,1.77,6.37,2.31.11.03.16-.12.06-.17Z"/>
              </g>
              <g>
                <path class="cls-4" d="m40.48,204.78v-13.75H7.27v1.79l23.1,23.1c5.68-.54,10.12-5.32,10.12-11.14Z"/>
                <path class="cls-38" d="m7.27,192.83v11.96c0,6.18,5.01,11.19,11.19,11.19h10.82c.36,0,.72-.02,1.08-.05l-23.1-23.1Z"/>
              </g>
            </g>
          </g>
          <g>
            <path class="cls-19" d="m147.95,211.69c-2.98-1.36-6.78-.89-10.01-.89-3.97,0-7.94,0-11.91.03-7.61.05-15.21.24-22.82.36-15.15.24-30.58-.27-45.64,1.57-.98.12-.98,1.41,0,1.53,15.06,1.84,30.49,1.33,45.64,1.57,7.61.12,15.21.24,22.82.36,3.64.06,7.28.02,10.91.02,3.5,0,7.76.59,11-.88,1.39-.64,1.39-3.04,0-3.68Z"/>
            <g>
              <path class="cls-26" d="m66.91,62.93c1.14-4.75,1.44-9.71.87-14.57-1.78-.97-1.86-3.75-.54-5.29,1.33-1.54,3.52-2.03,5.55-1.97,2.03.05,4.03.55,6.06.58.68.01,1.41-.05,1.96-.44.56-.4.84-1.24.43-1.79,2.85-.13,5.84,1.38,7,3.99s-.01,6.15-2.68,7.16c-.76.29-1.58.37-2.34.66-1.79.66-9.83,8.35-9.88,10.26l-6.45,1.41Z"/>
              <g>
                <g>
                  <path class="cls-13" d="m57.35,209.68v1.34c0,1.9,6.4,3.44,14.31,3.44s14.3-1.54,14.3-3.44v-1.34c0-1.9-6.4-3.44-14.3-3.44s-14.31,1.54-14.31,3.44Z"/>
                  <path class="cls-4" d="m57.35,209.68c0-1.9,6.4-3.44,14.31-3.44,1.42,0,2.8.05,4.1.14l-6.33,6.68c-6.84-.26-12.07-1.68-12.07-3.39Z"/>
                  <path class="cls-38" d="m85.97,209.68c0,1.9-6.4,3.44-14.3,3.44-.76,0-1.51-.01-2.23-.04l6.33-6.68c5.9.42,10.21,1.74,10.21,3.29Z"/>
                </g>
                <path class="cls-13" d="m71.85,208.63h0c.41,0,.74-.33.74-.74v-70.43h-1.48v70.43c0,.41.33.74.74.74Z"/>
                <path class="cls-13" d="m58.97,184.96c0-1.82,6.45-2.77,12.82-2.77s12.82.95,12.82,2.77-6.45,2.77-12.82,2.77-12.82-.95-12.82-2.77Zm1.36,0c0,.78,4.47,1.91,11.46,1.91s11.46-1.13,11.46-1.91-4.47-1.91-11.46-1.91-11.46,1.13-11.46,1.91Z"/>
                <path class="cls-13" d="m85.97,137.68v4.31c0,1.71-6.4,3.1-14.31,3.1s-14.31-1.39-14.31-3.1v-4.31h28.61Z"/>
                <path class="cls-4" d="m57.35,137.68c0,1.71,6.4,3.1,14.31,3.1s14.31-1.39,14.31-3.1-6.4-3.1-14.31-3.1-14.31,1.39-14.31,3.1Z"/>
              </g>
              <polyline class="cls-26" points="99.34 109.18 98.06 109.02 93.37 205.33 94.64 205.5"/>
              <g>
                <path class="cls-25" d="m93.3,130.15c1.41.54,16.51,35.87,16.51,35.87l7.52,39.8-3.94-1.05-11.16-25.55,1.54-11.61-25.34-29.87,14.87-7.59Z"/>
                <g>
                  <path class="cls-27" d="m84.23,121.41c-3.98.27-19.17-1.34-21.94-.65-1.62.4-2.46,3.43-2.41,4.67.12,3.17.38,7.39,2.21,9.84,5.09,6.83,46.7,12.02,46.7,12.02l-10.24,8.94-8.14,29.01,2.89,2.61,27.02-45.85-34.58-16.34-1.51-4.24Z"/>
                  <polygon class="cls-26" points="94.86 194.01 92.93 188.68 89.63 185.62 85.29 187.94 96.69 200.19 97.08 198.45 94.86 194.01"/>
                </g>
                <polygon class="cls-26" points="121.81 210.38 117.56 206.63 113.2 205.53 110.5 209.64 126.38 214.93 125.89 213.22 121.81 210.38"/>
              </g>
              <g>
                <polygon class="cls-26" points="140.19 205.33 138.92 205.5 134.23 109.18 135.5 109.02 140.19 205.33"/>
                <rect class="cls-4" x="88.28" y="105.79" width="57.01" height="2.33" transform="translate(233.56 213.9) rotate(180)"/>
                <rect class="cls-15" x="93.5" y="108.11" width="46.56" height="2.33" transform="translate(233.57 218.56) rotate(180)"/>
                <g>
                  <polygon class="cls-15" points="88.01 212.91 89.57 213.09 95.34 109.2 93.77 109.02 88.01 212.91"/>
                  <polygon class="cls-15" points="145.56 212.91 144 213.09 138.23 109.2 139.79 109.02 145.56 212.91"/>
                </g>
              </g>
              <g>
                <g>
                  <path class="cls-15" d="m98.27,81.51h0c-.29-.12-3.6-1.51-3.49-1.8l6.1-14.21c.12-.29,3,1.25,3.3,1.36h0c.29.12.43.45.32.74l-5.48,13.58c-.12.29-.45.43-.74.32Z"/>
                  <path class="cls-28" d="m95.15,80.18h0c-.29-.12-.43-.45-.32-.74l5.48-13.58c.12-.29.45-.43.74-.32h0c.29.12.43.45.32.74l-5.48,13.58c-.12.29-.45.43-.74.32Z"/>
                  <g>
                    <path class="cls-28" d="m102.52,68.79l-.67-.28c-.2-.08-.29-.31-.2-.51h0c.08-.2.31-.29.51-.2l.67.28c.2.08.29.31.2.5h0c-.08.2-.31.29-.51.2Z"/>
                    <g>
                      <path class="cls-1" d="m101.93,68.49h-.02c-.1-.05-.14-.16-.1-.25l.11-.26c.04-.1.15-.14.25-.1h.02c.1.05.14.16.1.25l-.11.26c-.04.1-.15.14-.25.1Z"/>
                      <path class="cls-33" d="m103.01,68.57c-.08.19-.3.27-.48.19-.19-.08-.27-.3-.19-.48.08-.19.3-.27.48-.19.19.08.27.3.19.48Z"/>
                    </g>
                  </g>
                </g>
                <g>
                  <g>
                    <path class="cls-30" d="m94.15,100.33c-.7-2.39-.88-4.93-.51-7.4-1.35.09-4.83.31-5.18.15-.39-.17-4.88-17.53-6.94-19.57-1.16-1.15-7.02,3.03-7.29,4.25-.56,2.52,8.11,23.91,8.5,24.1.5.24,9.23-.72,11.41-1.53Z"/>
                    <path class="cls-37" d="m93.64,92.93l12.63-1.52.68,2.05-12.8,6.87s-1.91-6-.51-7.4Z"/>
                    <g>
                      <polygon class="cls-29" points="106.25 91.39 113.5 93.99 113.65 94.96 108.48 95.56 106.95 93.46 106.25 91.39"/>
                      <polygon class="cls-22" points="111.31 95.21 112.36 97.16 112.02 99.25 111.68 99.04 111.58 97.28 110.5 95.31 111.31 95.21"/>
                      <polygon class="cls-40" points="112.07 94.9 113.51 96.58 113.63 98.68 113.26 98.55 112.78 96.85 111.29 95.17 112.07 94.9"/>
                      <polygon class="cls-41" points="112.83 94.55 114.57 95.92 115.09 97.96 114.7 97.9 113.9 96.33 112.12 94.97 112.83 94.55"/>
                      <polygon class="cls-17" points="113.5 93.99 115.24 95.36 115.76 97.41 115.37 97.35 114.57 95.78 112.79 94.41 113.5 93.99"/>
                    </g>
                  </g>
                  <path class="cls-24" d="m66.55,63.68c-.77.01-1.5.3-2.21.59-3.01,1.22-6.25,1.88-9.09,3.51-3.22,1.84-4.87,4.75-5.21,8.42-.21,2.27.04,4.55.29,6.82.44,3.99.88,7.98,1.32,11.97.4,3.62,1.37,7.22,2.17,10.8.81,3.58,1.73,7.12,2.78,10.64.5,1.69,1.03,3.36,1.59,5.03.16.47,1.38,4.76,1.7,4.76,8.05.11,16.16-3.28,24.34-4.8-4.04-10.94-6.18-29.12-1.83-39.94.78-1.93.45-5.36-.33-7.29-.34-.85-8.18-7.7-13.12-9.86-.76-.33-1.56-.65-2.39-.64Z"/>
                  <g>
                    <path class="cls-14" d="m73.34,92.89s0,.02,0,.03c.01.01,0,0,0-.03Z"/>
                    <path class="cls-31" d="m95.15,79.5s-11.48,6.53-17.78,10.49c.35,2.38,1.41,4.57,2.94,6.57,7.65-6.17,17.21-14.09,17.21-14.09l-2.37-2.97Z"/>
                    <path class="cls-23" d="m73.34,92.89s.02.04,0,.03c0,0,0-.02,0-.03-.47-.88-11.91-18.67-14.51-20.84-1.52-1.27-3.67-2.14-5.46-1.3-1.37.64-2.16,2.15-2.36,3.65-.42,3.1,1.25,6.06,2.95,8.68,4.58,7.07,16.52,20.45,17.01,20.64.25.1,4.4-3.16,9.35-7.15-1.53-2-2.59-4.19-2.94-6.57-2.4,1.51-4.05,2.64-4.03,2.9Z"/>
                  </g>
                  <g>
                    <path class="cls-32" d="m109.5,103.96h29.62l4.42-18.15c.41-1.67-.86-3.28-2.57-3.28h-24.17c-1.22,0-2.29.84-2.57,2.02l-4.72,19.4Z"/>
                    <path class="cls-39" d="m110.75,103.96l4.72-19.4c.29-1.19,1.35-2.02,2.57-2.02h24.17c.89,0,1.66.43,2.13,1.08l-20.34,20.34h-13.26Z"/>
                    <path class="cls-21" d="m144.35,83.62c.44.6.64,1.39.44,2.19l-4.42,18.15h-16.36l20.34-20.34Z"/>
                    <path class="cls-39" d="m97.3,103.96h25.55l-1.49,1.49h-25.55c0-.82.67-1.49,1.49-1.49Z"/>
                    <path class="cls-21" d="m140.37,103.96c0,.82-.67,1.49-1.49,1.49h-17.52l1.49-1.49h17.52Z"/>
                    <path class="cls-32" d="m95.81,105.45h13.45c.82,0,1.49-.67,1.49-1.49h-13.44c-.82,0-1.49.67-1.49,1.49Z"/>
                  </g>
                  <path class="cls-3" d="m82.17,48.44c.96.51,1.28,1.76,1.14,2.84-.14,1.08-.61,2.09-.82,3.15-.21,1.07-.07,2.32.78,3,.41.33,1.02.61,1.01,1.13,0,.7-.99.82-1.6,1.16-.94.52-1.09,1.79-1.14,2.87-.05,1.08-.26,2.36-1.24,2.81-1.26.58-2.56-.67-3.9-1.01-1.24-.32-2.58.19-3.56,1.02-.98.83-3.54,5.6-4.21,6.69-2.25-.25-4.18-3.47-4.23-6.82l6.52-7.9c-.78.1-1.54-.41-1.93-1.09-.39-.68-.29-1.61.24-2.19.54-.57,2.78-1.27,2.77,1.32,0,0,1.54-1.45,2.18-3.53,1.41-4.58,7.99-3.46,7.99-3.46Z"/>
                </g>
                <path class="cls-16" d="m103.31,71.15c-1.41.11-3.58.36-4.64,1.52-.13.09-.26.18-.36.29-.47.48-.82,1.11-1.43,1.38-.16.07-.33.11-.5.15.04-.48.02-.97-.06-1.45-.02-.13-.05-.26-.13-.36-.08-.1-.22-.16-.34-.1-.09.05-.13.15-.17.24-.45,1.11-.9,2.22-1.35,3.33h.03c-.06.17-.11.33-.14.49-.18.87-.07,1.77.05,2.65l.82,2.72c.28.53.96.76,1.56.7.6-.06,1.15-.36,1.68-.65.94-.51,1.9-1.04,2.64-1.82.48-.5.85-1.13,1.01-1.8,0,0,.02,0,.02,0,0,0,.04,0,.08,0,0,0,.25.02.14,0,.4.07.81-.1.92-.52.1-.36-.12-.86-.52-.92-.24-.04-.47-.05-.7-.04-.01-.05-.03-.09-.05-.14.02,0,.04,0,.06,0,.4.07.81-.1.92-.52.1-.37-.12-.85-.52-.92-.42-.08-.83-.09-1.25-.04-.04-.07-.08-.15-.12-.22.38-.1.77-.14,1.17-.13.97.03.96-1.47,0-1.5-.57-.02-1.12.06-1.66.22-.02-.14-.04-.29-.07-.43.28-.1.58-.17.75-.22.7-.22,1.42-.34,2.15-.4.96-.07.96-1.57,0-1.5Z"/>
              </g>
            </g>
            <g>
              <g>
                <path class="cls-35" d="m158.18,53.2l-.05-.24-5.38-27.57-11.21-2.97-8.01,21.11-15.21-27.52,23.07,6.11,7.25-19.11,4.33,22.18,25.27,6.69-.14.15-19.91,21.17Zm-5.16-27.74l5.31,27.21,19.43-20.66-24.74-6.55h0Zm-34.2-9.06l14.67,26.54,7.81-20.58-22.48-5.95Zm22.81,5.78l11.07,2.93-4.14-21.2-6.93,18.27Z"/>
                <path class="cls-35" d="m148.68,3.37l-.06-.06-30.11,12.78-.2.09,37.81,27.04-9.47,5.03-13.2-5.18-18.41,26.03,31.62-20.58,11.45,4.49-3.81,24.41h.25l3.82-24.47.02-.1-11.44-4.48,9.64-5.12-37.78-27.02,29.75-12.62,29.34,28.43.17-.18-29.4-28.49Zm-33.02,65.12l17.9-25.1,12.8,5.02-30.69,20.08Z"/>
                <path class="cls-35" d="m154.33,77.52l-19.09-23.01-19.43-8.29-.53.06.43-.26,2.75-30.01,26.73,12.02,17.68-10.79.13.21-17.54,10.7,25.73,11.57-54.89,6.44,19.09,8.14.02.02,19.11,23.03-.19.16Zm-9.12-49.21l-28.83,17.59,53.89-6.32-25.06-11.27Zm-26.53-11.93l-2.7,29.48,28.96-17.67-26.26-11.81Z"/>
              </g>
              <path class="cls-36" d="m189.35,39.18c0-.07,0-.13,0-.2v-11.7h-10.38v10.24c-.57-.37-1.35-.53-2.17-.39-1.5.25-2.55,1.42-2.35,2.59.2,1.18,1.58,1.93,3.07,1.68,1.26-.21,2.2-1.07,2.35-2.03h.02v-.18c0-.07,0-.13,0-.2v-8.71h8.55v7.24c-.57-.37-1.35-.53-2.17-.39-1.5.25-2.55,1.42-2.35,2.59.2,1.18,1.58,1.93,3.07,1.68,1.26-.21,2.2-1.07,2.35-2.03h.02v-.18Z"/>
              <path class="cls-36" d="m157.95,43.76c-2.29,0-4.14,1.85-4.14,4.14s4.14,8.89,4.14,8.89c0,0,4.14-6.6,4.14-8.89s-1.85-4.14-4.14-4.14Zm0,7.38c-1.79,0-3.23-1.45-3.23-3.24s1.45-3.24,3.23-3.24,3.24,1.45,3.24,3.24-1.45,3.24-3.24,3.24Z"/>
              <path class="cls-36" d="m150.81,26.69h0c-.17,0-.33-.25-.39-.41-.87-2.3-3.1-4.01-5.7-4.01-3.37,0-6.1,2.69-6.1,6.06,0,.19,0,.36.03.54.01.11-.03.22-.11.3-.61.68-.97,1.57-.97,2.56,0,.08,0,.32,0,.41.01.22.2.54.42.54h16.9c.19,0,.36-.29.4-.48.08-.34.12-.63.12-.99,0-2.54-2.06-4.53-4.59-4.53Z"/>
              <g>
                <path id="circle" class="cls-36" d="m116.57,23.48c0,.87-.71,1.58-1.58,1.58s-1.58-.7-1.58-1.58.71-1.58,1.58-1.58,1.58.71,1.58,1.58Z"/>
                <path class="cls-36" d="m121.15,24.97h-2.08c-.03-1.48-.61-2.87-1.66-3.91-1.05-1.05-2.43-1.64-3.9-1.66v-2.07c4.18.06,7.58,3.46,7.63,7.65h0Z"/>
                <path class="cls-36" d="m125.2,24.97h-2.07c-.06-5.28-4.33-9.57-9.6-9.62v-2.07c6.41.06,11.61,5.27,11.67,11.69h0Z"/>
              </g>
              <path class="cls-36" d="m156.83,1.59s-.03-.06-.04-.09c.01-.07-.04-.22-.06-.31-.03-.14-.11-.27-.21-.38-.2-.22-.5-.42-.77-.52-.52-.21-1.13-.35-1.68-.26-.14.02-.4.17-.49.17h-1.12s-.01.09-.01.1c0,0,0,.09,0,.09-.16.12-.46.31-.66.31h-.67c-.17,0-.4-.11-.57-.21-.03-.02-.06-.15-.09-.17,0,0,0-.13-.02-.13h-1.07c-.08,0-.35-.15-.49-.17-.55-.09-1.16,0-1.68.21-.27.11-.57.33-.77.54-.1.1-.18.25-.21.39-.01.05,0,.12.02.19-1.54,2.67-.9,5.52-.9,5.52.06.36.19.67.39.87.19.43.54.69,1.08.64.72-.06,2.29-1.95,2.29-1.95.13-.16.4-.28.6-.28h4c.2,0,.47.13.6.28,0,0,1.57,1.89,2.29,1.95.72.06,1.11-.42,1.23-1.15,0,0,.67-2.95-.98-5.67Z"/>
              <g>
                <path class="cls-36" d="m166.83,18.83s0,.03,0,.04v2.63c0,.13-.11.24-.24.24s-.24-.11-.24-.24v-2.63s0-.03,0-.04h-.71s0,.03,0,.04v2.63c0,.13-.11.24-.24.24s-.24-.11-.24-.24v-2.63s0-.03,0-.04h-.71s0,.03,0,.04v2.63c0,.13-.11.24-.24.24s-.24-.11-.24-.24v-2.63s0-.03,0-.04h-.71s0,.03,0,.04v2.63c0,.13-.11.24-.24.24s-.24-.11-.24-.24v-2.63s0-.03,0-.04h-.71s0,.03,0,.04v2.63c0,.13-.11.24-.24.24s-.24-.11-.24-.24v-2.63s0-.03,0-.04h-.71s0,.03,0,.04v2.63c0,.13-.11.24-.24.24s-.24-.11-.24-.24v-2.63s0-.03,0-.04h-1.22l.74,2.92c.06.25.29.43.56.43h6.22c.26,0,.49-.18.56-.43l.74-2.92h-1.22Z"/>
                <path class="cls-36" d="m168.39,18.76c.1-.36-.19-.72-.6-.72h-8.31c-.4,0-.69.35-.6.72l.02.08h9.46l.02-.08Z"/>
                <path class="cls-36" d="m166.38,18.47s0,0,0,0l-2.32-4.33c-.08-.15-.23-.24-.4-.24s-.32.09-.4.24l-2.32,4.33s0,0,0,0l-.15-.08s0,0,0,0l2.31-4.31c.12-.23.37-.38.63-.36.22.02.41.14.52.34l2.32,4.33s0,0,0,0l-.15.08Z"/>
              </g>
              <path class="cls-36" d="m121.69,48.93c-.37,0-.71.11-1,.29l-2.73-2.54c.14-.26.22-.56.22-.88s-.08-.62-.22-.88l2.73-2.54c.29.18.63.29,1,.29,1.04,0,1.88-.84,1.88-1.88s-.84-1.88-1.88-1.88-1.88.84-1.88,1.88c0,.32.08.62.22.88l-2.73,2.54c-.29-.18-.63-.29-1-.29-1.04,0-1.88.84-1.88,1.88s.84,1.88,1.88,1.88c.37,0,.71-.11,1-.29l2.73,2.54c-.14.26-.22.56-.22.88,0,1.04.84,1.88,1.88,1.88s1.88-.84,1.88-1.88-.84-1.88-1.88-1.88Z"/>
            </g>
          </g>
        </g>
      </g>
    </g>
  </g>
</svg>