<svg width="157" height="48" viewBox="0 0 157 48" fill="none" xmlns="http://www.w3.org/2000/svg">
<path d="M24.5 45.161L7 34.82V14.18L24.5 3.83899L42 14.18V34.82L24.5 45.161ZM9 33.68L24.5 42.839L40 33.68V15.32L24.5 6.16099L9 15.32V33.68Z" fill='#D81B60'/>
<path d="M24.5 9C26.433 9 28 7.433 28 5.5C28 3.567 26.433 2 24.5 2C22.567 2 21 3.567 21 5.5C21 7.433 22.567 9 24.5 9Z" fill='#D81B60'/>
<path d="M24.5 47C26.433 47 28 45.433 28 43.5C28 41.567 26.433 40 24.5 40C22.567 40 21 41.567 21 43.5C21 45.433 22.567 47 24.5 47Z" fill='#D81B60'/>
<path d="M8.5 37C10.433 37 12 35.433 12 33.5C12 31.567 10.433 30 8.5 30C6.567 30 5 31.567 5 33.5C5 35.433 6.567 37 8.5 37Z" fill='#D81B60'/>
<path d="M40.5 37C42.433 37 44 35.433 44 33.5C44 31.567 42.433 30 40.5 30C38.567 30 37 31.567 37 33.5C37 35.433 38.567 37 40.5 37Z" fill='#D81B60'/>
<path d="M8.5 19C10.433 19 12 17.433 12 15.5C12 13.567 10.433 12 8.5 12C6.567 12 5 13.567 5 15.5C5 17.433 6.567 19 8.5 19Z" fill='#D81B60'/>
<path d="M40.5 19C42.433 19 44 17.433 44 15.5C44 13.567 42.433 12 40.5 12C38.567 12 37 13.567 37 15.5C37 17.433 38.567 19 40.5 19Z" fill='#D81B60'/>
<path d="M42.72 35H6.28003L24.5 2.978L42.72 35ZM9.72003 33H39.28L24.5 7.022L9.72003 33Z" fill='#D81B60'/>
<path d="M55.416 30.162C54.024 30.162 52.86 29.904 51.924 29.388C50.988 28.872 50.286 28.128 49.818 27.156C49.35 26.184 49.116 25.02 49.116 23.664C49.116 22.32 49.362 21.162 49.854 20.19C50.346 19.218 51.054 18.468 51.978 17.94C52.902 17.412 54.018 17.148 55.326 17.148C56.25 17.148 57.048 17.286 57.72 17.562C58.404 17.826 59.016 18.222 59.556 18.75L58.998 19.92C58.602 19.572 58.218 19.296 57.846 19.092C57.486 18.888 57.108 18.738 56.712 18.642C56.316 18.534 55.854 18.48 55.326 18.48C53.826 18.48 52.674 18.936 51.87 19.848C51.078 20.748 50.682 22.026 50.682 23.682C50.682 25.35 51.066 26.628 51.834 27.516C52.614 28.404 53.82 28.848 55.452 28.848C56.052 28.848 56.622 28.794 57.162 28.686C57.714 28.566 58.248 28.398 58.764 28.182L58.44 28.992V24.528H55.2V23.358H59.718V29.244C59.202 29.52 58.548 29.742 57.756 29.91C56.976 30.078 56.196 30.162 55.416 30.162ZM62.75 30V17.31H67.934C69.266 17.31 70.298 17.628 71.03 18.264C71.762 18.888 72.128 19.764 72.128 20.892C72.128 21.636 71.96 22.272 71.624 22.8C71.3 23.316 70.838 23.712 70.238 23.988C69.65 24.264 68.96 24.402 68.168 24.402L68.492 24.168H68.852C69.344 24.168 69.782 24.288 70.166 24.528C70.562 24.768 70.874 25.17 71.102 25.734L72.902 30H71.264L69.536 25.806C69.332 25.266 69.026 24.918 68.618 24.762C68.21 24.594 67.7 24.51 67.088 24.51H64.244V30H62.75ZM64.244 23.34H67.718C68.678 23.34 69.404 23.136 69.896 22.728C70.4 22.308 70.652 21.708 70.652 20.928C70.652 20.148 70.4 19.554 69.896 19.146C69.404 18.738 68.678 18.534 67.718 18.534H64.244V23.34ZM73.7595 30L79.3575 17.31H80.6535L86.3415 30H84.7935L83.2095 26.382L83.8755 26.76H76.1175L76.8375 26.382L75.2895 30H73.7595ZM79.9875 19.02L77.0715 25.86L76.6395 25.536H83.3355L83.0115 25.86L80.0235 19.02H79.9875ZM88.2559 30V17.31H93.4219C94.7539 17.31 95.7799 17.634 96.4999 18.282C97.2199 18.918 97.5799 19.806 97.5799 20.946C97.5799 22.062 97.2199 22.95 96.4999 23.61C95.7799 24.258 94.7539 24.582 93.4219 24.582H89.7499V30H88.2559ZM89.7499 23.34H93.2779C94.2019 23.34 94.8979 23.13 95.3659 22.71C95.8459 22.29 96.0859 21.702 96.0859 20.946C96.0859 20.178 95.8459 19.584 95.3659 19.164C94.8979 18.744 94.2019 18.534 93.2779 18.534H89.7499V23.34ZM99.9805 30V17.31H101.474V22.926H109.124V17.31H110.6V30H109.124V24.204H101.474V30H99.9805ZM113.762 30V17.31H115.256V30H113.762ZM127.204 33.438C126.856 33.21 126.496 32.916 126.124 32.556C125.752 32.196 125.398 31.794 125.062 31.35C124.738 30.906 124.456 30.462 124.216 30.018L125.53 29.532C125.842 30.156 126.244 30.72 126.736 31.224C127.228 31.74 127.726 32.184 128.23 32.556L127.204 33.438ZM117.952 23.646C117.952 22.302 118.18 21.15 118.636 20.19C119.104 19.218 119.77 18.468 120.634 17.94C121.51 17.412 122.56 17.148 123.784 17.148C124.972 17.148 126.004 17.412 126.88 17.94C127.756 18.468 128.428 19.218 128.896 20.19C129.376 21.15 129.616 22.296 129.616 23.628C129.616 24.972 129.376 26.13 128.896 27.102C128.416 28.074 127.738 28.83 126.862 29.37C125.998 29.898 124.972 30.162 123.784 30.162C122.56 30.162 121.516 29.898 120.652 29.37C119.788 28.83 119.122 28.074 118.654 27.102C118.186 26.13 117.952 24.978 117.952 23.646ZM119.518 23.646C119.518 25.278 119.878 26.556 120.598 27.48C121.318 28.392 122.38 28.848 123.784 28.848C125.128 28.848 126.172 28.392 126.916 27.48C127.672 26.556 128.05 25.278 128.05 23.646C128.05 22.002 127.678 20.73 126.934 19.83C126.19 18.918 125.14 18.462 123.784 18.462C122.38 18.462 121.318 18.918 120.598 19.83C119.878 20.73 119.518 22.002 119.518 23.646ZM132.324 30V17.31H133.818V28.704H140.226V30H132.324Z" fill={currentColor}/>
</svg>
